<svg id="Layer_1" data-name="Layer 1" xmlns="http://www.w3.org/2000/svg" viewBox="0 0 254.48 160.34"><defs><style>.cls-1{fill:#fff;}</style></defs><title>favicon</title><path class="cls-1" d="M223.14,108.46c-16.51,14.06-26.26,14.68-4.83,18.06,2.71-.41,8.41-8.06,8.41,3.57-3.56,14-17.39,4.55-26.76,1.76-20.2-5.64-49.48,68.8-58.54,22-15.84,21.22-27.12,10.28-26.72-.2.24-12.23,19-57.57,30-35.58,2.78,14.14-16.78,27.33-16.82,42.27,27.31-22.14,28.29-64,44.45-42.39,4.25,9.84-5.86,14.23-9.38,22.78-4,7.25-10.37,24.23-6.86,21.93,6.47-4.43,12.87-12.16,18.15-18.63,18.88-32.64,40.5-35.33,57.69-54.51-10,.74-19.54,7.93-25,17.11-15.42-6.13,18.94-29.23,27.83-27.95-26.36-9.62-76-5.09-82.69-2.9-26.52,17.64-48.23,71.86-52.15,84.5-13.8,42.89,0,41.42-5.29,47.22-12,5.36-27.93-22.49-23-30.34C66.73,121.36,1.4,118.77.76,103.85,3.2,68.39,191.69,44,205.14,48.32,262.66,49.29,273.32,82.61,223.14,108.46ZM126.62,77.51c-196,30.79-71.83,19.21-52.32,79.63C88.18,135.36,105,99.84,126.62,77.51Z" transform="translate(-0.76 -47.83)"/></svg>