<svg id="Layer_1" data-name="Layer 1" xmlns="http://www.w3.org/2000/svg" viewBox="0 0 50 50"><defs><style>.cls-1{fill:#232323;}.cls-2{fill:#fff;}</style></defs><title>Tu2 Logo SVG</title><circle class="cls-1" cx="25" cy="25" r="25"/><path class="cls-2" d="M39.92,23c-2.59,2.21-4.11,2.3-.75,2.83.42-.06,1.32-1.26,1.32.57-.56,2.19-2.73.71-4.2.27-3.17-.88-7.76,10.79-9.19,3.45-2.48,3.33-4.25,1.61-4.19,0,0-1.92,3-9,4.71-5.58.44,2.22-2.63,4.28-2.64,6.63,4.29-3.47,4.44-10,7-6.65C32.62,26,31,26.7,30.48,28c-.63,1.14-1.62,3.8-1.07,3.44a15.77,15.77,0,0,0,2.84-2.92c3-5.12,6.36-5.54,9-8.55a5.3,5.3,0,0,0-3.91,2.68c-2.42-1,3-4.58,4.36-4.38-4.13-1.51-11.92-.8-13-.46-4.16,2.77-7.57,11.28-8.18,13.26-2.16,6.73,0,6.5-.83,7.41-1.88.84-4.38-3.53-3.61-4.76C15.39,25,5.14,24.6,5,22.26c.38-5.56,30-9.38,32.06-8.71C46.12,13.7,47.8,18.93,39.92,23ZM24.78,18.13C-6,23,13.52,21.14,16.58,30.62,18.75,27.2,21.39,21.63,24.78,18.13Z"/></svg>